<svg xmlns="http://www.w3.org/2000/svg" version="1.1" xmlns:xlink="http://www.w3.org/1999/xlink" xmlns:svgjs="http://svgjs.dev/svgjs" width="1500" height="200" viewBox="0 0 1500 200"><g transform="matrix(1,0,0,1,-0.9090909090909918,0.9038937713167599)"><svg viewBox="0 0 396 53" preserveAspectRatio="xMidYMid meet" height="200" width="1500" xmlns="http://www.w3.org/2000/svg" xmlns:xlink="http://www.w3.org/1999/xlink"><g id="tight-bounds" transform="matrix(1,0,0,1,0.2400000000000091,-0.19483325480447888)"><svg viewBox="0 0 395.52 53.389666509608944" height="53.389666509608944" width="395.52"><g><svg viewBox="0 0 443.8308519875362 59.910955638880885" height="53.389666509608944" width="395.52"><g transform="matrix(1,0,0,1,48.31085198753626,8.280023536198446)"><svg viewBox="0 0 395.52 43.350908566483994" height="43.350908566483994" width="395.52"><g id="textblocktransform"><svg viewBox="0 0 395.52 43.350908566483994" height="43.350908566483994" width="395.52" id="textblock"><g><svg viewBox="0 0 395.52 43.350908566483994" height="43.350908566483994" width="395.52"><g transform="matrix(1,0,0,1,0,0)"><svg width="395.52" viewBox="1.05 -37.5 346.67 38" height="43.350908566483994" ><path d="M1.05-34.05L1.05-35 16-35Q22.95-35 26.43-33.13 29.9-31.25 29.9-26.8L29.9-26.8Q29.9-19.95 21.65-18.6L21.65-18.6 21.65-18.5Q31.65-17.25 31.65-9.8L31.65-9.8Q31.65-4.35 27.55-2.18 23.45 0 15.75 0L15.75 0 1.05 0 1.05-0.95 4.3-0.95 4.3-34.05 1.05-34.05ZM15.2-17.7L14.05-17.7 14.05-0.95 16.4-0.95Q19.15-0.95 20.25-2.85 21.35-4.75 21.35-8.45L21.35-8.45 21.35-11.1Q21.35-14.4 20-16.05 18.65-17.7 15.2-17.7L15.2-17.7ZM15.65-34.05L14.05-34.05 14.05-18.65 15.35-18.65Q17.95-18.65 18.98-20.23 20-21.8 20-25.05L20-25.05 20-27.4Q20-31.1 19.1-32.58 18.2-34.05 15.65-34.05L15.65-34.05ZM54.35-9.25L60.35-35 73.7-35 73.7-34.05 70.95-34.05 70.95-0.95 73.7-0.95 73.7 0 58.45 0 58.45-0.95 61.2-0.95 61.2-32.2 61-32.2 53.5 0 47.25 0 38.45-32.35 38.25-32.35 38.25-0.95 41-0.95 41 0 34.2 0 34.2-0.95 36.95-0.95 36.95-34.05 34.2-34.05 34.2-35 47.7-35 54.35-9.25ZM76.2-34.05L76.2-35 91.45-35 91.45-34.05 88.7-34.05 88.7-0.95 91.45-0.95 91.45 0 76.2 0 76.2-0.95 78.95-0.95 78.95-34.05 76.2-34.05ZM121.69-34.55L121.69-34.55Q113.94-34.55 113.94-19.6L113.94-19.6 113.94-15.65Q113.94-8.55 115.99-4.53 118.04-0.5 122.04-0.5L122.04-0.5Q127.54-0.5 132.14-11.2L132.14-11.2 133.04-11.2 132.69-0.05 132.14-0.05Q131.84-0.6 131.59-0.83 131.34-1.05 130.87-1.05 130.39-1.05 127.24-0.28 124.09 0.5 120.84 0.5L120.84 0.5Q112.69 0.5 108.22-3.9 103.74-8.3 103.74-17.13 103.74-25.95 108.42-30.75 113.09-35.55 120.99-35.55L120.99-35.55Q124.04-35.55 126.97-34.77 129.89-34 130.39-34 130.89-34 131.14-34.23 131.39-34.45 131.69-35L131.69-35 132.24-35 132.64-24.15 131.74-24.15Q129.49-29.2 127.12-31.88 124.74-34.55 121.69-34.55ZM148.69-11.75L148.69-11.75 150.14-11.75 150.14-15.6Q150.14-20.35 149.61-21.98 149.09-23.6 147.59-23.6L147.59-23.6Q146.69-23.6 145.96-23.13 145.24-22.65 145.24-21.83 145.24-21 145.54-20.15L145.54-20.15 146.79-20.15Q147.19-19.1 147.19-17.63 147.19-16.15 145.94-15.08 144.69-14 142.79-14L142.79-14Q138.49-14 138.49-18.15L138.49-18.15Q138.49-24.3 148.94-24.3L148.94-24.3Q154.89-24.3 157.16-22.28 159.44-20.25 159.44-14.85L159.44-14.85 159.44-4.7Q159.44-2.1 160.89-2.1L160.89-2.1Q162.59-2.1 162.89-7.25L162.89-7.25 163.64-7.2Q163.44-2.8 161.99-1.15 160.54 0.5 157.24 0.5L157.24 0.5Q151.24 0.5 150.34-3.2L150.34-3.2Q149.69-1.3 148.39-0.4 147.09 0.5 144.59 0.5L144.59 0.5Q137.19 0.5 137.19-5.55L137.19-5.55Q137.19-9.1 140.01-10.43 142.84-11.75 148.69-11.75ZM146.69-5.6Q146.69-3 146.96-2.25 147.24-1.5 148.01-1.5 148.79-1.5 149.46-2.78 150.14-4.05 150.14-6.3L150.14-6.3 150.14-10.95 149.79-10.95Q146.69-10.95 146.69-6.4L146.69-6.4 146.69-5.6ZM163.94-36.6L163.94-37.5 176.19-37.5 176.19-0.9 178.98-0.9 178.98 0 164.13 0 164.13-0.9 166.88-0.9 166.88-36.6 163.94-36.6ZM193.93-23.4L193.93-23.4Q191.73-23.4 190.78-21 189.83-18.6 189.83-13.05L189.83-13.05 189.83-10.45Q189.83-5.5 190.93-3.35 192.03-1.2 194.98-1.2 197.93-1.2 199.68-3.2 201.43-5.2 201.93-7.75L201.93-7.75 202.83-7.65Q201.88-3.35 199.33-1.45L199.33-1.45Q196.73 0.5 192.18 0.5L192.18 0.5Q186.38 0.5 183.28-2.63 180.18-5.75 180.18-11.78 180.18-17.8 183.71-21.05 187.23-24.3 193.53-24.3L193.53-24.3Q197.98-24.3 200.33-22.58 202.68-20.85 202.68-18.25 202.68-15.65 201.56-14.45 200.43-13.25 198.46-13.25 196.48-13.25 195.28-14.3 194.08-15.35 194.08-17.4L194.08-17.4Q194.08-18.3 194.33-19.2L194.33-19.2 195.98-19.2Q196.33-20.2 196.33-21L196.33-21Q196.33-23.4 193.93-23.4ZM233.33-0.9L233.33 0 221.93 0 221.38-3.65Q220.58-1.65 219.01-0.58 217.43 0.5 214.33 0.5L214.33 0.5Q206.58 0.5 206.58-7.85L206.58-7.85 206.58-22.9 203.78-22.9 203.78-23.8 215.88-23.8 215.88-6.65Q215.88-3.65 216.31-2.7 216.73-1.75 218.01-1.75 219.28-1.75 220.28-3.3 221.28-4.85 221.28-7.6L221.28-7.6 221.28-22.9 218.98-22.9 218.98-23.8 230.58-23.8 230.58-0.9 233.33-0.9ZM234.13-36.6L234.13-37.5 246.38-37.5 246.38-0.9 249.18-0.9 249.18 0 234.33 0 234.33-0.9 237.08-0.9 237.08-36.6 234.13-36.6ZM262.13-11.75L262.13-11.75 263.58-11.75 263.58-15.6Q263.58-20.35 263.05-21.98 262.53-23.6 261.03-23.6L261.03-23.6Q260.13-23.6 259.4-23.13 258.68-22.65 258.68-21.83 258.68-21 258.98-20.15L258.98-20.15 260.23-20.15Q260.63-19.1 260.63-17.63 260.63-16.15 259.38-15.08 258.13-14 256.23-14L256.23-14Q251.93-14 251.93-18.15L251.93-18.15Q251.93-24.3 262.38-24.3L262.38-24.3Q268.33-24.3 270.6-22.28 272.88-20.25 272.88-14.85L272.88-14.85 272.88-4.7Q272.88-2.1 274.33-2.1L274.33-2.1Q276.03-2.1 276.33-7.25L276.33-7.25 277.08-7.2Q276.88-2.8 275.43-1.15 273.98 0.5 270.68 0.5L270.68 0.5Q264.68 0.5 263.78-3.2L263.78-3.2Q263.13-1.3 261.83-0.4 260.53 0.5 258.03 0.5L258.03 0.5Q250.63 0.5 250.63-5.55L250.63-5.55Q250.63-9.1 253.45-10.43 256.28-11.75 262.13-11.75ZM260.13-5.6Q260.13-3 260.4-2.25 260.68-1.5 261.45-1.5 262.23-1.5 262.9-2.78 263.58-4.05 263.58-6.3L263.58-6.3 263.58-10.95 263.23-10.95Q260.13-10.95 260.13-6.4L260.13-6.4 260.13-5.6ZM279.32-7.15L279.32-7.15 279.32-22.9 276.57-22.9 276.57-23.8 279.32-23.8 279.32-30.25 288.62-32.55 288.62-23.8 295.12-23.8 295.12-22.9 288.62-22.9 288.62-6.05Q288.62-3.7 289.1-2.6 289.57-1.5 291.07-1.5 292.57-1.5 293.7-3 294.82-4.5 295.17-7.1L295.17-7.1 296.02-7Q295.62-3.55 293.82-1.53 292.02 0.5 287.87 0.5 283.72 0.5 281.52-1.15 279.32-2.8 279.32-7.15ZM312.67-9.85L312.67-9.85 312.67-14.1Q312.67-18.95 312.15-21.18 311.62-23.4 309.72-23.4L309.72-23.4Q308.62-23.4 307.95-22.78 307.27-22.15 306.97-20.7L306.97-20.7Q306.52-18.45 306.52-13.85L306.52-13.85 306.52-9.95Q306.52-4.5 306.85-3.4 307.17-2.3 307.52-1.6L307.52-1.6Q308.07-0.4 309.67-0.4L309.67-0.4Q311.62-0.4 312.22-2.65L312.22-2.65Q312.67-4.25 312.67-9.85ZM309.57 0.5Q303.32 0.5 300.12-2.7 296.92-5.9 296.92-11.88 296.92-17.85 300.35-21.08 303.77-24.3 309.97-24.3 316.17-24.3 319.22-21.33 322.27-18.35 322.27-12.25L322.27-12.25Q322.27 0.5 309.57 0.5L309.57 0.5ZM340.37-22.4L340.37-22.4Q338.52-22.4 337.12-20 335.72-17.6 335.72-14.3L335.72-14.3 335.72-0.9 339.27-0.9 339.27 0 323.67 0 323.67-0.9 326.42-0.9 326.42-22.9 323.67-22.9 323.67-23.8 335.72-23.8 335.72-19Q336.37-21.55 338.22-22.93 340.07-24.3 342.42-24.3 344.77-24.3 346.24-22.98 347.72-21.65 347.72-19.23 347.72-16.8 346.62-15.5 345.52-14.2 343.24-14.2 340.97-14.2 339.89-15.7 338.82-17.2 339.62-19.85L339.62-19.85 341.42-19.85Q342.67-22.4 340.37-22.4Z" opacity="1" transform="matrix(1,0,0,1,0,0)" fill="#000000" class="wordmark-text-0"  id="text-0"></path></svg></g></svg></g></svg></g></svg></g><g><svg viewBox="0 0 38.07674289679498 59.910955638880885" height="59.910955638880885" width="38.07674289679498"><g><svg xmlns="http://www.w3.org/2000/svg" xmlns:xlink="http://www.w3.org/1999/xlink" version="1.1" x="0" y="0" viewBox="23.879000000000005 8.901 52.24203413210846 82.199" enable-background="new 0 0 100 100" xml:space="preserve" height="59.910955638880885" width="38.07674289679498" class="icon-icon-0" id="icon-0"><g fill="#000000" ><circle cx="50" cy="17.264" r="8.4" fill="#000000" ></circle><path d="M75.891 28.943c-0.082-0.281-0.191-0.558-0.355-0.818l-7.354-11.692c-0.965-1.538-2.996-2-4.533-1.034-1.537 0.968-2 2.997-1.033 4.535l4.348 6.915H59.02c-0.059 0-0.117 0.014-0.176 0.017-0.061-0.003-0.115-0.017-0.176-0.017H41.331c-0.06 0-0.117 0.015-0.176 0.017-0.06-0.003-0.116-0.017-0.177-0.017h-7.94l4.347-6.915c0.969-1.538 0.504-3.567-1.033-4.535-1.537-0.967-3.566-0.504-4.533 1.034l-7.354 11.692c-0.169 0.267-0.277 0.552-0.362 0.841-0.14 0.366-0.224 0.758-0.224 1.172 0 1.815 1.472 3.287 3.288 3.287h10.782v6.104c-1.777 2.775-2.828 6.187-2.828 9.876 0 5.288 2.153 10.005 5.518 13.094v24.699c0 2.154 1.747 3.902 3.9 3.902 2.152 0 3.899-1.748 3.899-3.902V66.163c0.513 0.061 1.034 0.093 1.562 0.093s1.049-0.032 1.563-0.093v21.034c0 2.154 1.746 3.902 3.9 3.902s3.9-1.748 3.9-3.902v-24.7c3.363-3.089 5.516-7.805 5.516-13.093 0-3.689-1.051-7.101-2.826-9.876v-6.104h10.779c1.818 0 3.289-1.472 3.289-3.287C76.123 29.716 76.037 29.314 75.891 28.943z" fill="#000000" ></path></g></svg></g></svg></g></svg></g><defs></defs></svg><rect width="395.52" height="53.389666509608944" fill="none" stroke="none" visibility="hidden"></rect></g></svg></g></svg>